<svg width="29" height="30" viewBox="0 0 29 30" fill="none" xmlns="http://www.w3.org/2000/svg">
<ellipse cx="14.2347" cy="15" rx="14.2347" ry="15" fill="#3FA0A5" fill-opacity="0.55"/>
<path d="M6.64286 22.9286C6.12092 22.9286 5.67426 22.7429 5.3029 22.3715C4.93153 22.0001 4.74553 21.5532 4.7449 21.0306V10.5918C4.7449 10.0699 4.9309 9.62323 5.3029 9.25187C5.6749 8.8805 6.12155 8.6945 6.64286 8.69387H10.4388V6.79591C10.4388 6.27397 10.6248 5.82732 10.9968 5.45595C11.3688 5.08458 11.8154 4.89858 12.3367 4.89795H16.1327C16.6546 4.89795 17.1016 5.08395 17.4736 5.45595C17.8456 5.82795 18.0312 6.2746 18.0306 6.79591V8.69387H21.8265C22.3485 8.69387 22.7954 8.87987 23.1674 9.25187C23.5394 9.62387 23.7251 10.0705 23.7245 10.5918V21.0306C23.7245 21.5525 23.5388 21.9995 23.1674 22.3715C22.7961 22.7435 22.3491 22.9292 21.8265 22.9286H6.64286ZM6.64286 21.0306H21.8265V10.5918H6.64286V21.0306ZM12.3367 8.69387H16.1327V6.79591H12.3367V8.69387Z" fill="white"/>
</svg>
