<svg width="29" height="30" viewBox="0 0 29 30" fill="none" xmlns="http://www.w3.org/2000/svg">
<ellipse cx="14.2347" cy="15" rx="14.2347" ry="15" fill="#3FA0A5" fill-opacity="0.55"/>
<path d="M14.2347 24.8265L11.3878 21.9796H7.59184C7.0699 21.9796 6.62324 21.7939 6.25188 21.4225C5.88051 21.0512 5.69451 20.6042 5.69388 20.0816V6.79591C5.69388 6.27397 5.87988 5.82732 6.25188 5.45595C6.62388 5.08458 7.07053 4.89858 7.59184 4.89795H20.8776C21.3995 4.89795 21.8465 5.08395 22.2185 5.45595C22.5905 5.82795 22.7761 6.2746 22.7755 6.79591V20.0816C22.7755 20.6036 22.5898 21.0505 22.2185 21.4225C21.8471 21.7945 21.4001 21.9802 20.8776 21.9796H17.0816L14.2347 24.8265ZM7.59184 18.9903C8.44592 18.152 9.43855 17.4919 10.5697 17.0098C11.7009 16.5277 12.9226 16.2863 14.2347 16.2857C15.5468 16.2851 16.7688 16.5264 17.9006 17.0098C19.0324 17.4931 20.0247 18.1533 20.8776 18.9903V6.79591H7.59184V18.9903ZM14.2347 14.3877C15.152 14.3877 15.9349 14.0635 16.5834 13.415C17.2319 12.7666 17.5561 11.9837 17.5561 11.0663C17.5561 10.149 17.2319 9.36606 16.5834 8.71759C15.9349 8.06912 15.152 7.74489 14.2347 7.74489C13.3173 7.74489 12.5344 8.06912 11.886 8.71759C11.2375 9.36606 10.9133 10.149 10.9133 11.0663C10.9133 11.9837 11.2375 12.7666 11.886 13.415C12.5344 14.0635 13.3173 14.3877 14.2347 14.3877ZM9.48979 20.0816H18.9796V19.8444C18.3153 19.2908 17.5798 18.8758 16.7732 18.5993C15.9666 18.3228 15.1204 18.1843 14.2347 18.1837C13.349 18.183 12.5028 18.3216 11.6962 18.5993C10.8895 18.8771 10.1541 19.2921 9.48979 19.8444V20.0816ZM14.2347 12.4898C13.8393 12.4898 13.5033 12.3516 13.2269 12.0751C12.9504 11.7986 12.8119 11.4624 12.8112 11.0663C12.8106 10.6703 12.9491 10.3343 13.2269 10.0585C13.5046 9.78266 13.8405 9.64411 14.2347 9.64285C14.6288 9.64158 14.9651 9.78013 15.2435 10.0585C15.5218 10.3369 15.6601 10.6728 15.6582 11.0663C15.6563 11.4598 15.518 11.7961 15.2435 12.0751C14.9689 12.3541 14.6326 12.4923 14.2347 12.4898Z" fill="white"/>
</svg>
